<mxfile host="app.diagrams.net" agent="Mozilla/5.0 (Windows NT 10.0; Win64; x64) AppleWebKit/537.36 (KHTML, like Gecko) Chrome/136.0.0.0 Safari/537.36 Edg/136.0.0.0" version="27.0.6" pages="2">
  <diagram name="Asset-Decision-Tree" id="kh70RzPJQsRN2QVFIez3">
    <mxGraphModel dx="1367" dy="960" grid="1" gridSize="10" guides="1" tooltips="1" connect="1" arrows="1" fold="1" page="1" pageScale="1" pageWidth="850" pageHeight="1100" math="0" shadow="0">
      <root>
        <mxCell id="0" />
        <mxCell id="1" parent="0" />
        <mxCell id="EKoYhgj5fetH4Y42ur88-1" value="&lt;span data-contrast=&quot;none&quot; class=&quot;TextRun SCXO240272631 BCX8&quot; lang=&quot;EN-US&quot; style=&quot;margin: 0px; padding: 0px; user-select: text; -webkit-user-drag: none; -webkit-tap-highlight-color: transparent; color: rgb(0, 0, 0); font-style: normal; font-variant-caps: normal; font-weight: normal; letter-spacing: normal; orphans: 2; text-align: left; text-indent: 0px; text-transform: none; widows: 2; word-spacing: 0px; -webkit-text-stroke-width: 0px; white-space: normal; background-color: transparent; text-decoration: none; font-size: 11pt; font-family: &amp;quot;Aptos Narrow&amp;quot;, sans-serif; line-height: 17px; font-variant-ligatures: none !important;&quot;&gt;&lt;span class=&quot;NormalTextRun SCXO240272631 BCX8&quot; style=&quot;margin: 0px; padding: 0px; user-select: text; -webkit-user-drag: none; -webkit-tap-highlight-color: transparent; background-color: inherit;&quot;&gt;Spider diagram for admission of data into&lt;span&gt;&amp;nbsp;&lt;/span&gt;&lt;/span&gt;&lt;span class=&quot;SpellingError SCXO240272631 BCX8&quot; style=&quot;margin: 0px; padding: 0px; user-select: text; -webkit-user-drag: none; -webkit-tap-highlight-color: transparent; background-repeat: repeat-x; background-position: left bottom; background-image: url(&amp;quot;data:image/gif;base64,R0lGODlhBQAEAJECAP////8AAAAAAAAAACH5BAEAAAIALAAAAAAFAAQAAAIIlGAXCCHrTCgAOw==&amp;quot;); border-bottom: 1px solid transparent; background-color: inherit;&quot;&gt;AgPile&lt;/span&gt;&lt;span class=&quot;NormalTextRun SCXO240272631 BCX8&quot; style=&quot;margin: 0px; padding: 0px; user-select: text; -webkit-user-drag: none; -webkit-tap-highlight-color: transparent; background-color: inherit;&quot;&gt;:&amp;nbsp;&lt;/span&gt;&lt;/span&gt;&lt;div style=&quot;text-align: center;&quot;&gt;&lt;span data-contrast=&quot;none&quot; class=&quot;TextRun SCXO240272631 BCX8&quot; lang=&quot;EN-US&quot; style=&quot;margin: 0px; padding: 0px; user-select: text; -webkit-user-drag: none; -webkit-tap-highlight-color: transparent; color: rgb(0, 0, 0); font-style: normal; font-variant-caps: normal; font-weight: normal; letter-spacing: normal; orphans: 2; text-indent: 0px; text-transform: none; widows: 2; word-spacing: 0px; -webkit-text-stroke-width: 0px; white-space: normal; background-color: transparent; text-decoration: none; font-size: 11pt; font-family: &amp;quot;Aptos Narrow&amp;quot;, sans-serif; line-height: 17px; font-variant-ligatures: none !important;&quot;&gt;&lt;span class=&quot;NormalTextRun SCXO240272631 BCX8&quot; style=&quot;margin: 0px; padding: 0px; user-select: text; -webkit-user-drag: none; -webkit-tap-highlight-color: transparent; background-color: inherit;&quot;&gt;Maturity Assessment, Readiness score&lt;/span&gt;&lt;/span&gt;&lt;span class=&quot;EOP SCXO240272631 BCX8&quot; style=&quot;margin: 0px; padding: 0px; user-select: text; -webkit-user-drag: none; -webkit-tap-highlight-color: transparent; color: rgb(0, 0, 0); font-style: normal; font-variant-ligatures: normal; font-variant-caps: normal; font-weight: 400; letter-spacing: normal; orphans: 2; text-align: left; text-indent: 0px; text-transform: none; widows: 2; word-spacing: 0px; -webkit-text-stroke-width: 0px; white-space: normal; background-color: rgb(255, 255, 255); text-decoration-thickness: initial; text-decoration-style: initial; text-decoration-color: initial; font-size: 11pt; line-height: 17px; font-family: &amp;quot;Aptos Narrow&amp;quot;, sans-serif;&quot;&gt;&amp;nbsp;&lt;/span&gt;&lt;/div&gt;" style="text;whiteSpace=wrap;html=1;" vertex="1" parent="1">
          <mxGeometry x="260" y="30" width="450" height="60" as="geometry" />
        </mxCell>
        <mxCell id="EKoYhgj5fetH4Y42ur88-4" value="" style="edgeStyle=orthogonalEdgeStyle;rounded=0;orthogonalLoop=1;jettySize=auto;html=1;" edge="1" parent="1" source="EKoYhgj5fetH4Y42ur88-2" target="EKoYhgj5fetH4Y42ur88-3">
          <mxGeometry relative="1" as="geometry" />
        </mxCell>
        <mxCell id="EKoYhgj5fetH4Y42ur88-2" value="" style="ellipse;whiteSpace=wrap;html=1;aspect=fixed;" vertex="1" parent="1">
          <mxGeometry x="35" y="262" width="20" height="20" as="geometry" />
        </mxCell>
        <mxCell id="EKoYhgj5fetH4Y42ur88-3" value="Asset identified or requested for registration on AgPile" style="whiteSpace=wrap;html=1;" vertex="1" parent="1">
          <mxGeometry x="85" y="242" width="120" height="60" as="geometry" />
        </mxCell>
        <mxCell id="EKoYhgj5fetH4Y42ur88-8" value="" style="edgeStyle=orthogonalEdgeStyle;rounded=0;orthogonalLoop=1;jettySize=auto;html=1;" edge="1" parent="1" source="EKoYhgj5fetH4Y42ur88-6" target="EKoYhgj5fetH4Y42ur88-7">
          <mxGeometry relative="1" as="geometry" />
        </mxCell>
        <mxCell id="EKoYhgj5fetH4Y42ur88-14" value="" style="edgeStyle=orthogonalEdgeStyle;rounded=0;orthogonalLoop=1;jettySize=auto;html=1;" edge="1" parent="1" source="EKoYhgj5fetH4Y42ur88-6">
          <mxGeometry relative="1" as="geometry">
            <mxPoint x="370" y="360" as="targetPoint" />
          </mxGeometry>
        </mxCell>
        <mxCell id="EKoYhgj5fetH4Y42ur88-6" value="&lt;font style=&quot;font-size: 10px;&quot;&gt;is asset in&amp;nbsp;&lt;/font&gt;&lt;div&gt;&lt;font style=&quot;font-size: 10px;&quot;&gt;existing public or private&amp;nbsp;&amp;nbsp;&lt;/font&gt;&lt;/div&gt;&lt;div&gt;&lt;font style=&quot;font-size: 10px;&quot;&gt;repository?&lt;/font&gt;&lt;/div&gt;" style="rhombus;whiteSpace=wrap;html=1;" vertex="1" parent="1">
          <mxGeometry x="320" y="228" width="110" height="88" as="geometry" />
        </mxCell>
        <mxCell id="EKoYhgj5fetH4Y42ur88-10" style="edgeStyle=orthogonalEdgeStyle;rounded=0;orthogonalLoop=1;jettySize=auto;html=1;" edge="1" parent="1" source="EKoYhgj5fetH4Y42ur88-7" target="EKoYhgj5fetH4Y42ur88-9">
          <mxGeometry relative="1" as="geometry" />
        </mxCell>
        <mxCell id="EKoYhgj5fetH4Y42ur88-7" value="Harvest references / URLs to asset from the existing repository" style="whiteSpace=wrap;html=1;" vertex="1" parent="1">
          <mxGeometry x="490" y="242" width="120" height="60" as="geometry" />
        </mxCell>
        <mxCell id="EKoYhgj5fetH4Y42ur88-9" value="end" style="strokeWidth=2;html=1;shape=mxgraph.flowchart.terminator;whiteSpace=wrap;" vertex="1" parent="1">
          <mxGeometry x="660" y="257" width="50" height="30" as="geometry" />
        </mxCell>
        <mxCell id="EKoYhgj5fetH4Y42ur88-11" style="edgeStyle=orthogonalEdgeStyle;rounded=0;orthogonalLoop=1;jettySize=auto;html=1;" edge="1" parent="1" source="EKoYhgj5fetH4Y42ur88-3">
          <mxGeometry relative="1" as="geometry">
            <mxPoint x="319" y="272" as="targetPoint" />
          </mxGeometry>
        </mxCell>
        <mxCell id="EKoYhgj5fetH4Y42ur88-12" value="Yes" style="text;html=1;align=center;verticalAlign=middle;resizable=0;points=[];autosize=1;strokeColor=none;fillColor=none;" vertex="1" parent="1">
          <mxGeometry x="430" y="230" width="40" height="30" as="geometry" />
        </mxCell>
        <mxCell id="EKoYhgj5fetH4Y42ur88-16" value="No" style="text;html=1;align=center;verticalAlign=middle;resizable=0;points=[];autosize=1;strokeColor=none;fillColor=none;" vertex="1" parent="1">
          <mxGeometry x="370" y="330" width="40" height="30" as="geometry" />
        </mxCell>
        <mxCell id="EKoYhgj5fetH4Y42ur88-22" value="" style="edgeStyle=orthogonalEdgeStyle;rounded=0;orthogonalLoop=1;jettySize=auto;html=1;" edge="1" parent="1" source="EKoYhgj5fetH4Y42ur88-17" target="EKoYhgj5fetH4Y42ur88-21">
          <mxGeometry relative="1" as="geometry" />
        </mxCell>
        <mxCell id="EKoYhgj5fetH4Y42ur88-25" value="" style="edgeStyle=orthogonalEdgeStyle;rounded=0;orthogonalLoop=1;jettySize=auto;html=1;" edge="1" parent="1" source="EKoYhgj5fetH4Y42ur88-17" target="EKoYhgj5fetH4Y42ur88-24">
          <mxGeometry relative="1" as="geometry" />
        </mxCell>
        <mxCell id="EKoYhgj5fetH4Y42ur88-17" value="&lt;div&gt;&lt;font style=&quot;font-size: 10px;&quot;&gt;assigned&amp;nbsp;&lt;/font&gt;&lt;/div&gt;&lt;div&gt;&lt;font style=&quot;font-size: 10px;&quot;&gt;global&amp;nbsp;&lt;/font&gt;&lt;/div&gt;&lt;div&gt;&lt;font style=&quot;font-size: 10px;&quot;&gt;unique and&amp;nbsp;&lt;/font&gt;&lt;/div&gt;&lt;div&gt;&lt;font style=&quot;font-size: 10px;&quot;&gt;persistent&amp;nbsp;&lt;/font&gt;&lt;/div&gt;&lt;div&gt;&lt;font style=&quot;font-size: 10px;&quot;&gt;identifier?&lt;/font&gt;&lt;/div&gt;" style="rhombus;whiteSpace=wrap;html=1;" vertex="1" parent="1">
          <mxGeometry x="317" y="360" width="120" height="102" as="geometry" />
        </mxCell>
        <mxCell id="eXoO0mXBXrkGlScKykgu-1" style="edgeStyle=orthogonalEdgeStyle;rounded=0;orthogonalLoop=1;jettySize=auto;html=1;entryX=0;entryY=0.5;entryDx=0;entryDy=0;fontFamily=Helvetica;fontSize=12;fontColor=default;exitX=0;exitY=0.5;exitDx=0;exitDy=0;" edge="1" parent="1" source="EKoYhgj5fetH4Y42ur88-21" target="EKoYhgj5fetH4Y42ur88-17">
          <mxGeometry relative="1" as="geometry" />
        </mxCell>
        <mxCell id="EKoYhgj5fetH4Y42ur88-21" value="Request assignment of unique identifier" style="whiteSpace=wrap;html=1;" vertex="1" parent="1">
          <mxGeometry x="310" y="563" width="120" height="60" as="geometry" />
        </mxCell>
        <mxCell id="EKoYhgj5fetH4Y42ur88-23" value="No" style="text;html=1;align=center;verticalAlign=middle;resizable=0;points=[];autosize=1;strokeColor=none;fillColor=none;" vertex="1" parent="1">
          <mxGeometry x="370" y="480" width="40" height="30" as="geometry" />
        </mxCell>
        <mxCell id="EKoYhgj5fetH4Y42ur88-27" value="" style="edgeStyle=orthogonalEdgeStyle;rounded=0;orthogonalLoop=1;jettySize=auto;html=1;" edge="1" parent="1" source="EKoYhgj5fetH4Y42ur88-24" target="EKoYhgj5fetH4Y42ur88-26">
          <mxGeometry relative="1" as="geometry" />
        </mxCell>
        <mxCell id="eXoO0mXBXrkGlScKykgu-7" value="" style="edgeStyle=orthogonalEdgeStyle;rounded=0;orthogonalLoop=1;jettySize=auto;html=1;fontFamily=Helvetica;fontSize=12;fontColor=default;" edge="1" parent="1" source="EKoYhgj5fetH4Y42ur88-24" target="eXoO0mXBXrkGlScKykgu-6">
          <mxGeometry relative="1" as="geometry" />
        </mxCell>
        <mxCell id="EKoYhgj5fetH4Y42ur88-24" value="&lt;div&gt;&lt;span style=&quot;font-size: 10px;&quot;&gt;described with rich metadata?&lt;/span&gt;&lt;/div&gt;" style="rhombus;whiteSpace=wrap;html=1;" vertex="1" parent="1">
          <mxGeometry x="517" y="360" width="120" height="102" as="geometry" />
        </mxCell>
        <mxCell id="eXoO0mXBXrkGlScKykgu-5" style="edgeStyle=orthogonalEdgeStyle;rounded=0;orthogonalLoop=1;jettySize=auto;html=1;fontFamily=Helvetica;fontSize=12;fontColor=default;endArrow=none;startFill=0;" edge="1" parent="1" source="EKoYhgj5fetH4Y42ur88-26">
          <mxGeometry relative="1" as="geometry">
            <mxPoint x="480" y="410" as="targetPoint" />
          </mxGeometry>
        </mxCell>
        <mxCell id="EKoYhgj5fetH4Y42ur88-26" value="Request creation of rich metadata" style="whiteSpace=wrap;html=1;" vertex="1" parent="1">
          <mxGeometry x="510" y="563" width="120" height="60" as="geometry" />
        </mxCell>
        <mxCell id="EKoYhgj5fetH4Y42ur88-28" value="No" style="text;html=1;align=center;verticalAlign=middle;resizable=0;points=[];autosize=1;strokeColor=none;fillColor=none;" vertex="1" parent="1">
          <mxGeometry x="580" y="490" width="40" height="30" as="geometry" />
        </mxCell>
        <mxCell id="EKoYhgj5fetH4Y42ur88-33" value="&lt;div style=&quot;text-align: center;&quot;&gt;&lt;span style=&quot;background-color: transparent; color: light-dark(rgb(0, 0, 0), rgb(255, 255, 255)); text-wrap-mode: nowrap;&quot;&gt;&lt;b&gt;&lt;u&gt;List of assets supported by FAIR Principles&lt;/u&gt;&lt;/b&gt;&lt;/span&gt;&lt;/div&gt;&lt;ul&gt;&lt;li&gt;Agricultural Datasets – Soil health records,&amp;nbsp;&lt;span style=&quot;background-color: transparent; color: light-dark(rgb(0, 0, 0), rgb(255, 255, 255));&quot;&gt;crop yield statistics, and climate impact data.&lt;/span&gt;&lt;/li&gt;&lt;li&gt;Environmental &amp;amp; Sustainability Data – Open-access records on carbon sequestration, water usage efficiency, and biodiversity conservation.&lt;/li&gt;&lt;li&gt;Genomic &amp;amp; Breeding Data – Genetic sequences of crops, livestock breeding records, and trait selection datasets.&lt;/li&gt;&lt;li&gt;Farm Management Software – Open-source tools for precision agriculture, pest control models, and irrigation optimization.&lt;/li&gt;&lt;li&gt;Scientific Publications – Open-access research papers on sustainable farming, agroecology, and food security.&lt;/li&gt;&lt;li&gt;Metadata &amp;amp; Ontologies – Standardized vocabularies for plant diseases, soil classification, and agricultural biodiversity.&lt;/li&gt;&lt;li&gt;Remote Sensing &amp;amp; GIS Data – Satellite imagery for land use analysis, drone-based crop monitoring, and geospatial mapping.&lt;/li&gt;&lt;li&gt;Experimental Protocols – Documented methods for soil testing, pest resistance trials, and fertilizer application studies.&lt;/li&gt;&lt;li&gt;Knowledge Graphs &amp;amp; Linked Data – Interconnected databases on agricultural supply chains, market trends, and food distribution.&lt;/li&gt;&lt;li&gt;Multimedia Archives – Digital images of plant diseases, instructional videos on farming techniques, and audio interviews with farmers.&lt;/li&gt;&lt;/ul&gt;" style="text;html=1;align=left;verticalAlign=middle;rounded=0; whiteSpace=wrap;overflow=visible;whiteSpace=wrap;fontSize=8;" vertex="1" parent="1">
          <mxGeometry x="50" y="410" width="190" height="170" as="geometry" />
        </mxCell>
        <mxCell id="EKoYhgj5fetH4Y42ur88-37" value="&lt;font style=&quot;font-size: 10px;&quot;&gt;see list of CGIAR asset&amp;nbsp;&lt;/font&gt;&lt;div&gt;&lt;font style=&quot;font-size: 10px;&quot;&gt;catalogs page for details&lt;/font&gt;&lt;/div&gt;" style="text;html=1;align=center;verticalAlign=middle;resizable=0;points=[];autosize=1;strokeColor=none;fillColor=none;fontFamily=Helvetica;fontSize=12;fontColor=default;" vertex="1" parent="1">
          <mxGeometry x="300" y="180" width="130" height="40" as="geometry" />
        </mxCell>
        <mxCell id="eXoO0mXBXrkGlScKykgu-9" value="" style="edgeStyle=orthogonalEdgeStyle;rounded=0;orthogonalLoop=1;jettySize=auto;html=1;fontFamily=Helvetica;fontSize=12;fontColor=default;" edge="1" parent="1" source="eXoO0mXBXrkGlScKykgu-6" target="eXoO0mXBXrkGlScKykgu-8">
          <mxGeometry relative="1" as="geometry" />
        </mxCell>
        <mxCell id="eXoO0mXBXrkGlScKykgu-11" value="" style="edgeStyle=orthogonalEdgeStyle;rounded=0;orthogonalLoop=1;jettySize=auto;html=1;fontFamily=Helvetica;fontSize=12;fontColor=default;" edge="1" parent="1" source="eXoO0mXBXrkGlScKykgu-6" target="eXoO0mXBXrkGlScKykgu-10">
          <mxGeometry relative="1" as="geometry" />
        </mxCell>
        <mxCell id="eXoO0mXBXrkGlScKykgu-6" value="&lt;div&gt;&lt;span style=&quot;font-size: 10px;&quot;&gt;metadata clearly&amp;nbsp;&lt;/span&gt;&lt;/div&gt;&lt;div&gt;&lt;span style=&quot;font-size: 10px;&quot;&gt;includes the identifier of asset described&lt;/span&gt;&lt;/div&gt;" style="rhombus;whiteSpace=wrap;html=1;" vertex="1" parent="1">
          <mxGeometry x="717" y="360" width="120" height="102" as="geometry" />
        </mxCell>
        <mxCell id="eXoO0mXBXrkGlScKykgu-8" value="update metadata to include identifier for the asset" style="whiteSpace=wrap;html=1;" vertex="1" parent="1">
          <mxGeometry x="717" y="563" width="120" height="60" as="geometry" />
        </mxCell>
        <mxCell id="eXoO0mXBXrkGlScKykgu-13" value="" style="edgeStyle=orthogonalEdgeStyle;rounded=0;orthogonalLoop=1;jettySize=auto;html=1;fontFamily=Helvetica;fontSize=12;fontColor=default;" edge="1" parent="1" source="eXoO0mXBXrkGlScKykgu-10" target="eXoO0mXBXrkGlScKykgu-12">
          <mxGeometry relative="1" as="geometry" />
        </mxCell>
        <mxCell id="eXoO0mXBXrkGlScKykgu-15" value="" style="edgeStyle=orthogonalEdgeStyle;rounded=0;orthogonalLoop=1;jettySize=auto;html=1;fontFamily=Helvetica;fontSize=12;fontColor=default;" edge="1" parent="1" source="eXoO0mXBXrkGlScKykgu-10" target="eXoO0mXBXrkGlScKykgu-14">
          <mxGeometry relative="1" as="geometry" />
        </mxCell>
        <mxCell id="eXoO0mXBXrkGlScKykgu-10" value="&lt;div&gt;&lt;span style=&quot;font-size: 10px;&quot;&gt;is the metadata&amp;nbsp;&lt;/span&gt;&lt;/div&gt;&lt;div&gt;&lt;span style=&quot;font-size: 10px;&quot;&gt;registered or indexed&amp;nbsp;&lt;/span&gt;&lt;/div&gt;&lt;div&gt;&lt;span style=&quot;font-size: 10px;&quot;&gt;in a searchable&lt;/span&gt;&lt;/div&gt;&lt;div&gt;&lt;span style=&quot;font-size: 10px;&quot;&gt;resource?&lt;/span&gt;&lt;/div&gt;" style="rhombus;whiteSpace=wrap;html=1;" vertex="1" parent="1">
          <mxGeometry x="917" y="360" width="120" height="102" as="geometry" />
        </mxCell>
        <mxCell id="eXoO0mXBXrkGlScKykgu-12" value="register and index metadata in a searchable resource such as a public or private asset repository in the list of CG assets catalogs" style="whiteSpace=wrap;html=1;" vertex="1" parent="1">
          <mxGeometry x="890" y="563" width="170" height="77" as="geometry" />
        </mxCell>
        <mxCell id="eXoO0mXBXrkGlScKykgu-17" value="" style="edgeStyle=orthogonalEdgeStyle;rounded=0;orthogonalLoop=1;jettySize=auto;html=1;fontFamily=Helvetica;fontSize=12;fontColor=default;" edge="1" parent="1" source="eXoO0mXBXrkGlScKykgu-14" target="eXoO0mXBXrkGlScKykgu-16">
          <mxGeometry relative="1" as="geometry" />
        </mxCell>
        <mxCell id="eXoO0mXBXrkGlScKykgu-14" value="asset&amp;nbsp;&lt;div&gt;retrievable&amp;nbsp;&lt;div&gt;by standard communication&amp;nbsp;&lt;/div&gt;&lt;div&gt;protocol?&lt;/div&gt;&lt;/div&gt;" style="rhombus;whiteSpace=wrap;html=1;" vertex="1" parent="1">
          <mxGeometry x="1180" y="600" width="140" height="140" as="geometry" />
        </mxCell>
        <mxCell id="eXoO0mXBXrkGlScKykgu-19" value="" style="edgeStyle=orthogonalEdgeStyle;rounded=0;orthogonalLoop=1;jettySize=auto;html=1;fontFamily=Helvetica;fontSize=12;fontColor=default;" edge="1" parent="1" source="eXoO0mXBXrkGlScKykgu-16" target="eXoO0mXBXrkGlScKykgu-18">
          <mxGeometry relative="1" as="geometry" />
        </mxCell>
        <mxCell id="eXoO0mXBXrkGlScKykgu-16" value="is the protocol&amp;nbsp;&lt;div&gt;open,&amp;nbsp;&lt;span style=&quot;background-color: transparent; color: light-dark(rgb(0, 0, 0), rgb(255, 255, 255));&quot;&gt;free and&amp;nbsp;&lt;/span&gt;&lt;/div&gt;&lt;div&gt;&lt;span style=&quot;background-color: transparent; color: light-dark(rgb(0, 0, 0), rgb(255, 255, 255));&quot;&gt;universally implementable?&lt;/span&gt;&lt;/div&gt;" style="rhombus;whiteSpace=wrap;html=1;" vertex="1" parent="1">
          <mxGeometry x="1400" y="600" width="140" height="140" as="geometry" />
        </mxCell>
        <mxCell id="eXoO0mXBXrkGlScKykgu-21" value="" style="edgeStyle=orthogonalEdgeStyle;rounded=0;orthogonalLoop=1;jettySize=auto;html=1;fontFamily=Helvetica;fontSize=12;fontColor=default;" edge="1" parent="1" source="eXoO0mXBXrkGlScKykgu-18" target="eXoO0mXBXrkGlScKykgu-20">
          <mxGeometry relative="1" as="geometry" />
        </mxCell>
        <mxCell id="eXoO0mXBXrkGlScKykgu-18" value="does&amp;nbsp;&lt;div&gt;protocol&amp;nbsp;&lt;div&gt;allow authentication&amp;nbsp;&lt;/div&gt;&lt;div&gt;and authorization&amp;nbsp;&lt;div&gt;procedure,&amp;nbsp;&lt;/div&gt;&lt;div&gt;if&amp;nbsp;&lt;/div&gt;&lt;div&gt;needed?&lt;/div&gt;&lt;/div&gt;&lt;/div&gt;" style="rhombus;whiteSpace=wrap;html=1;" vertex="1" parent="1">
          <mxGeometry x="1620" y="600" width="140" height="140" as="geometry" />
        </mxCell>
        <mxCell id="eXoO0mXBXrkGlScKykgu-23" value="" style="edgeStyle=orthogonalEdgeStyle;rounded=0;orthogonalLoop=1;jettySize=auto;html=1;fontFamily=Helvetica;fontSize=12;fontColor=default;" edge="1" parent="1" source="eXoO0mXBXrkGlScKykgu-20" target="eXoO0mXBXrkGlScKykgu-22">
          <mxGeometry relative="1" as="geometry" />
        </mxCell>
        <mxCell id="eXoO0mXBXrkGlScKykgu-20" value="is the asset&amp;nbsp;&lt;div&gt;assessible&amp;nbsp;&lt;div&gt;even when the asset is no longer&amp;nbsp;&lt;/div&gt;&lt;div&gt;available?&lt;/div&gt;&lt;/div&gt;" style="rhombus;whiteSpace=wrap;html=1;" vertex="1" parent="1">
          <mxGeometry x="1840" y="600" width="140" height="140" as="geometry" />
        </mxCell>
        <mxCell id="eXoO0mXBXrkGlScKykgu-22" value="" style="rhombus;whiteSpace=wrap;html=1;" vertex="1" parent="1">
          <mxGeometry x="2040" y="830" width="80" height="80" as="geometry" />
        </mxCell>
      </root>
    </mxGraphModel>
  </diagram>
  <diagram id="Ic8ztu4tHlWK104ME1zR" name="List of CGIAR asset catalogs">
    <mxGraphModel dx="1162" dy="816" grid="1" gridSize="10" guides="1" tooltips="1" connect="1" arrows="1" fold="1" page="1" pageScale="1" pageWidth="1100" pageHeight="850" math="0" shadow="0">
      <root>
        <mxCell id="0" />
        <mxCell id="1" parent="0" />
        <UserObject label="&lt;div style=&quot;text-align: center;&quot;&gt;&lt;span style=&quot;background-color: transparent; color: light-dark(rgb(0, 0, 0), rgb(255, 255, 255));&quot;&gt;&lt;b&gt;&lt;u&gt;Provider | Name | URL&lt;/u&gt;&lt;/b&gt;&lt;/span&gt;&lt;/div&gt;&lt;ol&gt;&lt;li&gt;Africa Rice Center | HARVARD Dataverse&amp;nbsp; | https://dataverse.harvard.edu/dataverse/harvard?q=%22Africa%20Rice%20Center%22&lt;/li&gt;&lt;li&gt;Africa Rice Center | CGSpace&amp;nbsp; | https://cgspace.cgiar.org/search?spc.page=1&amp;amp;query=%22Africa%20Rice%20Center%22&lt;/li&gt;&lt;li&gt;Africa Rice Center | HARVARD Dataverse&amp;nbsp; | https://dataverse.harvard.edu/dataverse/harvard?q=%22Africa%20Rice%20Center%22&lt;/li&gt;&lt;li&gt;Africa Rice Center | CGSpace&amp;nbsp; | https://cgspace.cgiar.org/search?query=%22Bioversity%20International%22&amp;amp;spc.page=1&lt;/li&gt;&lt;li&gt;Bioversity-CIAT Alliance | CGSpace&amp;nbsp; | https://cgspace.cgiar.org/search?query=%22Bioversity-CIAT%20Alliance%22&amp;amp;spc.page=1&lt;/li&gt;&lt;li&gt;CIAT - International Center for Tropical Agriculture | HARVARD Dataverse&amp;nbsp; | https://dataverse.harvard.edu/dataverse/CIAT&lt;/li&gt;&lt;li&gt;CIAT - International Center for Tropical Agriculture | CGSpace&amp;nbsp; | https://cgspace.cgiar.org/search?query=%22CIAT%20-%20International%20Center%20for%20Tropical%20Agriculture%22&amp;amp;spc.page=1&lt;/li&gt;&lt;li&gt;CIFOR - Center for International Forestry Research | CIFOR Dataverse&amp;nbsp; | https://dataverse.harvard.edu/dataverse/harvard/?q=%22CIFOR%22&lt;/li&gt;&lt;li&gt;CIFOR - Center for International Forestry Research | CGSpace&amp;nbsp; | https://cgspace.cgiar.org/search?query=%22CIFOR%20-%20Center%20for%20International%20Forestry%20Research%22&amp;amp;spc.page=1&lt;/li&gt;&lt;li&gt;CIMMYT - International Maize and Wheat Improvement Center | CIMMYT Research Data &amp;amp; Software Repository&amp;nbsp; | https://data.cimmyt.org/dataverse/root&lt;/li&gt;&lt;li&gt;CIMMYT - International Maize and Wheat Improvement Center | CIMMYT Publications Repository&amp;nbsp; | https://repository.cimmyt.org/home&lt;/li&gt;&lt;li&gt;CIP - International Potato Center | CIP Dataverse&amp;nbsp; | https://dataverse.harvard.edu/dataverse/harvard/?q=%22International+Potato+Center%22&lt;/li&gt;&lt;li&gt;CIP - International Potato Center | CGSpace&amp;nbsp; | https://cgspace.cgiar.org/search?query=%22CIP%20-%20International%20Potato%20Center%22&amp;amp;spc.page=1&lt;/li&gt;&lt;li&gt;CRPs/PTFs - CGIAR Research Programs and Platforms | HARVARD Dataverse&amp;nbsp; | https://dataverse.harvard.edu/dataverse/harvard/?q=CRPs%2FPTFs&lt;/li&gt;&lt;li&gt;CRPs/PTFs - CGIAR Research Programs and Platforms | CGSpace&amp;nbsp; | https://cgspace.cgiar.org/search?query=CRPs%2FPTFs%20&amp;amp;spc.page=1&lt;/li&gt;&lt;li&gt;CTA - Technical Centre for Agricultural and Rural Cooperation | CGSpace&amp;nbsp; | https://cgspace.cgiar.org/search?query=%22CTA%20-%20Technical%20Centre%20for%20Agricultural%20and%20Rural%20Cooperation%22&amp;amp;spc.page=1&lt;/li&gt;&lt;li&gt;Government of India (IndiaGOV) | Open Government Data (OGD) Platform India&amp;nbsp; | https://www.data.gov.in/&lt;/li&gt;&lt;li&gt;ICAR - Indian Council of Agricultural Research | KRISHI&amp;nbsp; | https://krishi.icar.gov.in/jspui/&lt;/li&gt;&lt;li&gt;ICARDA - International Center for Agricultural Research in the Dry Areas | MELDATA&amp;nbsp; | https://data.mel.cgiar.org/&lt;/li&gt;&lt;li&gt;ICARDA - International Center for Agricultural Research in the Dry Areas | MELSpace&amp;nbsp; | https://repo.mel.cgiar.org/home&lt;/li&gt;&lt;li&gt;ICRAF - World Agroforestry Centre | ICRAF Research Data Repository&amp;nbsp; | https://data.worldagroforestry.org/&lt;/li&gt;&lt;li&gt;ICRAF - World Agroforestry Centre | ICRAF Web Portal&amp;nbsp; | https://www.cifor-icraf.org/knowledge/publications/&lt;/li&gt;&lt;li&gt;ICRISAT - International Crops Research Institute for the Semi-Arid Tropics | ICRISAT Dataverse&amp;nbsp; | https://dataverse.harvard.edu/dataverse/harvard/?q=ICRISAT&lt;/li&gt;&lt;li&gt;ICRISAT - International Crops Research Institute for the Semi-Arid Tropics | ICRISAT Library&amp;nbsp; | https://oar.icrisat.org/&lt;/li&gt;&lt;li&gt;IFPRI - International Food Policy Research Institute | HARVARD Dataverse&amp;nbsp; | https://dataverse.harvard.edu/dataverse/harvard/?q=IFPRI&lt;/li&gt;&lt;li&gt;IFPRI - International Food Policy Research Institute | IFPRI Library&amp;nbsp; | https://ebrary.ifpri.org/&lt;/li&gt;&lt;li&gt;IGAD - Intergovernmental Authority on Development | CGSpace&amp;nbsp; | https://cgspace.cgiar.org/search?query=%22IGAD%20-%20Intergovernmental%20Authority%20on%20Development%22&amp;amp;spc.page=1&lt;/li&gt;&lt;li&gt;IITA - International Institute of Tropical Agriculture | IITA CKAN&amp;nbsp; | https://data.iita.org/&lt;/li&gt;&lt;li&gt;IITA - International Institute of Tropical Agriculture | CGSpace&amp;nbsp; | https://cgspace.cgiar.org/search?query=%22IITA%20-%20International%20Institute%20of%20Tropical%20Agriculture%22&amp;amp;spc.page=1&lt;/li&gt;&lt;li&gt;ILRI - International Livestock Research Institute | ILRI Datasets Portal&amp;nbsp; | https://data.ilri.org/portal/&lt;/li&gt;&lt;li&gt;ILRI - International Livestock Research Institute | CGSpace&amp;nbsp; | https://cgspace.cgiar.org/search?query=%22ILRI%20-%20International%20Livestock%20Research%20Institute%22&amp;amp;spc.page=1&lt;/li&gt;&lt;li&gt;IRRI - International Rice Research Institute | HARVARD Dataverse&amp;nbsp; | https://dataverse.harvard.edu/dataverse/harvard/?q=IRRI&lt;/li&gt;&lt;li&gt;IRRI - International Rice Research Institute | IRRI Library&amp;nbsp; | https://library.irri.org/&lt;/li&gt;&lt;li&gt;IWMI - International Water Management Institute | Water Data Portal&amp;nbsp; | https://waterdata.iwmi.org/&lt;/li&gt;&lt;li&gt;IWMI - International Water Management Institute | CGSpace&amp;nbsp; | https://cgspace.cgiar.org/search?query=%22IWMI%20-%20International%20Water%20Management%20Institute%22&amp;amp;spc.page=1&lt;/li&gt;&lt;li&gt;PABRA - Pan-Africa Bean Research Alliance | CGSpace&amp;nbsp; | https://cgspace.cgiar.org/search?query=%22PABRA%20-%20Pan-Africa%20Bean%20Research%20Alliance%22&amp;amp;spc.page=1&lt;/li&gt;&lt;li&gt;UK Foreign, Commonwealth &amp;amp; Development Office (FCDO) | GOV.UK&amp;nbsp; | https://www.gov.uk/research-for-development-outputs&lt;/li&gt;&lt;li&gt;UK Foreign, Commonwealth &amp;amp; Development Office (FCDO) | GOV.UK&amp;nbsp; | https://www.gov.uk/research-for-development-outputs&lt;/li&gt;&lt;li&gt;USAID - Feed the Future | USAID Development Data Library (DDL)&amp;nbsp; | https://data.usaid.gov/login&lt;/li&gt;&lt;li&gt;USAID - Feed the Future | CGSpace&amp;nbsp; | https://cgspace.cgiar.org/search?query=%22USAID%20-%20Feed%20the%20Future%22&amp;amp;spc.page=1&lt;/li&gt;&lt;li&gt;World Bank Group (WB) | Microdata Library&amp;nbsp; | https://microdata.worldbank.org/index.php/home&lt;/li&gt;&lt;li&gt;WorldFish | HARVARD Dataverse&amp;nbsp; | https://dataverse.harvard.edu/dataverse/harvard/?q=WorldFish&lt;/li&gt;&lt;li&gt;WorldFish | WorldFish Repository&amp;nbsp; | https://digitalarchive.worldfishcenter.org/home&lt;/li&gt;&lt;/ol&gt;" link="Provider | Name | URL&#xa;Africa Rice Center | HARVARD Dataverse  | https://dataverse.harvard.edu/dataverse/harvard?q=%22Africa%20Rice%20Center%22&#xa;Africa Rice Center | CGSpace  | https://cgspace.cgiar.org/search?spc.page=1&amp;query=%22Africa%20Rice%20Center%22&#xa;Africa Rice Center | HARVARD Dataverse  | https://dataverse.harvard.edu/dataverse/harvard?q=%22Africa%20Rice%20Center%22&#xa;Africa Rice Center | CGSpace  | https://cgspace.cgiar.org/search?query=%22Bioversity%20International%22&amp;spc.page=1&#xa;Bioversity-CIAT Alliance | CGSpace  | https://cgspace.cgiar.org/search?query=%22Bioversity-CIAT%20Alliance%22&amp;spc.page=1&#xa;CIAT - International Center for Tropical Agriculture | HARVARD Dataverse  | https://dataverse.harvard.edu/dataverse/CIAT&#xa;CIAT - International Center for Tropical Agriculture | CGSpace  | https://cgspace.cgiar.org/search?query=%22CIAT%20-%20International%20Center%20for%20Tropical%20Agriculture%22&amp;spc.page=1&#xa;CIFOR - Center for International Forestry Research | CIFOR Dataverse  | https://dataverse.harvard.edu/dataverse/harvard/?q=%22CIFOR%22&#xa;CIFOR - Center for International Forestry Research | CGSpace  | https://cgspace.cgiar.org/search?query=%22CIFOR%20-%20Center%20for%20International%20Forestry%20Research%22&amp;spc.page=1&#xa;CIMMYT - International Maize and Wheat Improvement Center | CIMMYT Research Data &amp; Software Repository  | https://data.cimmyt.org/dataverse/root&#xa;CIMMYT - International Maize and Wheat Improvement Center | CIMMYT Publications Repository  | https://repository.cimmyt.org/home&#xa;CIP - International Potato Center | CIP Dataverse  | https://dataverse.harvard.edu/dataverse/harvard/?q=%22International+Potato+Center%22&#xa;CIP - International Potato Center | CGSpace  | https://cgspace.cgiar.org/search?query=%22CIP%20-%20International%20Potato%20Center%22&amp;spc.page=1&#xa;CRPs/PTFs - CGIAR Research Programs and Platforms | HARVARD Dataverse  | https://dataverse.harvard.edu/dataverse/harvard/?q=CRPs%2FPTFs&#xa;CRPs/PTFs - CGIAR Research Programs and Platforms | CGSpace  | https://cgspace.cgiar.org/search?query=CRPs%2FPTFs%20&amp;spc.page=1&#xa;CTA - Technical Centre for Agricultural and Rural Cooperation | CGSpace  | https://cgspace.cgiar.org/search?query=%22CTA%20-%20Technical%20Centre%20for%20Agricultural%20and%20Rural%20Cooperation%22&amp;spc.page=1&#xa;Government of India (IndiaGOV) | Open Government Data (OGD) Platform India  | https://www.data.gov.in/&#xa;ICAR - Indian Council of Agricultural Research | KRISHI  | https://krishi.icar.gov.in/jspui/&#xa;ICARDA - International Center for Agricultural Research in the Dry Areas | MELDATA  | https://data.mel.cgiar.org/&#xa;ICARDA - International Center for Agricultural Research in the Dry Areas | MELSpace  | https://repo.mel.cgiar.org/home&#xa;ICRAF - World Agroforestry Centre | ICRAF Research Data Repository  | https://data.worldagroforestry.org/&#xa;ICRAF - World Agroforestry Centre | ICRAF Web Portal  | https://www.cifor-icraf.org/knowledge/publications/&#xa;ICRISAT - International Crops Research Institute for the Semi-Arid Tropics | ICRISAT Dataverse  | https://dataverse.harvard.edu/dataverse/harvard/?q=ICRISAT&#xa;ICRISAT - International Crops Research Institute for the Semi-Arid Tropics | ICRISAT Library  | https://oar.icrisat.org/&#xa;IFPRI - International Food Policy Research Institute | HARVARD Dataverse  | https://dataverse.harvard.edu/dataverse/harvard/?q=IFPRI&#xa;IFPRI - International Food Policy Research Institute | IFPRI Library  | https://ebrary.ifpri.org/&#xa;IGAD - Intergovernmental Authority on Development | CGSpace  | https://cgspace.cgiar.org/search?query=%22IGAD%20-%20Intergovernmental%20Authority%20on%20Development%22&amp;spc.page=1&#xa;IITA - International Institute of Tropical Agriculture | IITA CKAN  | https://data.iita.org/&#xa;IITA - International Institute of Tropical Agriculture | CGSpace  | https://cgspace.cgiar.org/search?query=%22IITA%20-%20International%20Institute%20of%20Tropical%20Agriculture%22&amp;spc.page=1&#xa;ILRI - International Livestock Research Institute | ILRI Datasets Portal  | https://data.ilri.org/portal/&#xa;ILRI - International Livestock Research Institute | CGSpace  | https://cgspace.cgiar.org/search?query=%22ILRI%20-%20International%20Livestock%20Research%20Institute%22&amp;spc.page=1&#xa;IRRI - International Rice Research Institute | HARVARD Dataverse  | https://dataverse.harvard.edu/dataverse/harvard/?q=IRRI&#xa;IRRI - International Rice Research Institute | IRRI Library  | https://library.irri.org/&#xa;IWMI - International Water Management Institute | Water Data Portal  | https://waterdata.iwmi.org/&#xa;IWMI - International Water Management Institute | CGSpace  | https://cgspace.cgiar.org/search?query=%22IWMI%20-%20International%20Water%20Management%20Institute%22&amp;spc.page=1&#xa;PABRA - Pan-Africa Bean Research Alliance | CGSpace  | https://cgspace.cgiar.org/search?query=%22PABRA%20-%20Pan-Africa%20Bean%20Research%20Alliance%22&amp;spc.page=1&#xa;UK Foreign, Commonwealth &amp; Development Office (FCDO) | GOV.UK  | https://www.gov.uk/research-for-development-outputs&#xa;UK Foreign, Commonwealth &amp; Development Office (FCDO) | GOV.UK  | https://www.gov.uk/research-for-development-outputs&#xa;USAID - Feed the Future | USAID Development Data Library (DDL)  | https://data.usaid.gov/login&#xa;USAID - Feed the Future | CGSpace  | https://cgspace.cgiar.org/search?query=%22USAID%20-%20Feed%20the%20Future%22&amp;spc.page=1&#xa;World Bank Group (WB) | Microdata Library  | https://microdata.worldbank.org/index.php/home&#xa;WorldFish | HARVARD Dataverse  | https://dataverse.harvard.edu/dataverse/harvard/?q=WorldFish&#xa;WorldFish | WorldFish Repository  | https://digitalarchive.worldfishcenter.org/home" id="vUZJN7qZZwGLHw8dWhFa-2">
          <mxCell style="text;whiteSpace=wrap;html=1;fontFamily=Helvetica;fontSize=13;fontColor=default;" vertex="1" parent="1">
            <mxGeometry y="40" width="1270" height="680" as="geometry" />
          </mxCell>
        </UserObject>
      </root>
    </mxGraphModel>
  </diagram>
</mxfile>
